<?xml version="1.0" encoding="UTF-8" standalone="no"?>
<svg
   width="132"
   height="132"
   viewBox="0 0 112.48228 112.48226"
   class="looka-1j8o68f"
   version="1.1"
   id="svg2"
   sodipodi:docname="Nexus-emblem.svg"
   inkscape:version="1.3.2 (091e20e, 2023-11-25, custom)"
   xmlns:inkscape="http://www.inkscape.org/namespaces/inkscape"
   xmlns:sodipodi="http://sodipodi.sourceforge.net/DTD/sodipodi-0.dtd"
   xmlns="http://www.w3.org/2000/svg"
   xmlns:svg="http://www.w3.org/2000/svg">
  <sodipodi:namedview
     id="namedview2"
     pagecolor="#ffffff"
     bordercolor="#000000"
     borderopacity="0.25"
     inkscape:showpageshadow="2"
     inkscape:pageopacity="0.0"
     inkscape:pagecheckerboard="0"
     inkscape:deskcolor="#d1d1d1"
     inkscape:zoom="1.3331365"
     inkscape:cx="20.25299"
     inkscape:cy="214.90673"
     inkscape:window-width="1920"
     inkscape:window-height="1009"
     inkscape:window-x="-8"
     inkscape:window-y="-8"
     inkscape:window-maximized="1"
     inkscape:current-layer="SvgjsG1458" />
  <defs
     id="SvgjsDefs1456" />
  <g
     id="SvgjsG1458"
     featurekey="monogramFeature-0"
     transform="matrix(2.469136,0,0,2.469136,-7.407408,-37.03704)"
     fill="#59606d">
    <path
       d="m 12.907658,47.197658 v -23.28 l -1.44,-0.42 c -0.48,-0.18 -0.84,-0.66 -0.84,-1.14 v -5.94 c 0,-0.42 0.42,-1.14 0.9,-1.14 h 12.48 c 0.42,0 0.72,0.48 0.84,0.78 l 3.54,8.58 3.84,-2.88 v 0.72 l -3.54,2.7 c 0.06,0.3 0.12,0.54 0.24,0.72 l 3.36,-2.46 c 0.06,0.18 0.06,0.42 0.18,0.6 l -3.3,2.46 0.3,0.72 3.6,-2.7 c 0,0 0.42,0.12 0.72,0.18 l -4.08,3.06 0.84,1.98 4.14,-3.06 v 0.54 0.18 l -3.84,2.88 c 0,0.18 0.18,0.6 0.24,0.72 l 3.6,-2.64 v 0.54 0.12 l -3.36,2.52 v 0.06 l 0.3,0.72 3.12,-2.34 v 0.72 l -2.88,2.16 c 0,0.12 0.18,0.54 0.36,0.66 l 2.52,-1.92 c 0,0.12 0,0.6 0.06,0.72 l -2.46,1.8 0.3,0.72 h 0.06 l 2.1,-1.56 v 0.66 l -1.86,1.38 c 0,0.24 0.18,0.66 0.3,0.78 l 1.56,-1.2 v 0.72 l -1.32,1.02 c 0,0.12 0.12,0.54 0.24,0.72 l 1.14,-0.78 v 0.48 0.18 l -0.9,0.66 c 0.06,0.18 0.24,0.6 0.3,0.72 l 0.6,-0.42 c 0.06,0.18 0.06,0.3 0.06,0.48 0,0.06 0,0.18 -0.06,0.24 0,0 -0.3,0.24 -0.36,0.3 l 0.3,0.72 0.12,-0.12 v 0.42 0.12 l 1.02,2.46 -0.36,-18.78 c 0,-0.12 0,-0.12 -0.06,-0.12 -1.02,-0.3 -2.28,-0.36 -2.28,-1.68 v -5.76 c 0,-0.48 0.42,-1.2 0.96,-1.2 h 10.92 c 0.48,0 0.9,0.66 0.9,1.08 v 6 c 0,0.54 -0.36,0.96 -0.84,1.14 l -1.5,0.42 v 30.78 c 0,0.54 -0.42,1.2 -0.96,1.2 h -10.02 c -0.42,0 -0.78,-0.48 -0.96,-0.84 l -11.04,-26.76 c 0,0.66 0.06,3.18 0.18,3.78 0.06,0.12 0.18,0.42 0.18,0.42 v 0.06 c -0.06,0 -0.18,0.12 -0.24,0.3 v 0.84 l 0.54,-0.42 c 0.06,0.18 0.24,0.54 0.24,0.54 l -0.78,0.6 v 0.12 0.78 h 0.06 c 0.12,-0.12 0.78,-0.6 1.02,-0.72 0.06,0.12 0.18,0.36 0.18,0.54 l -1.2,0.9 v 0.18 0.78 l 1.56,-1.14 c 0,0.12 0.12,0.42 0.18,0.54 l -1.74,1.32 v 0.18 c 0,0.3 0,0.48 0.06,0.72 l 1.98,-1.5 c 0.06,0.12 0.24,0.48 0.24,0.6 l -2.22,1.62 v 0.24 0.72 l 2.46,-1.86 c 0.12,0.06 0.24,0.42 0.24,0.54 l -2.7,2.04 v 0.3 c 0,0 0,0.42 0.06,0.6 l 3,-2.22 c 0.06,0.12 0.18,0.42 0.18,0.54 l -3.18,2.4 v 0.96 l 3.54,-2.64 0.18,0.48 c 0,0.06 -0.06,0.06 -0.06,0.12 l -3.6,2.7 c -0.06,0 -0.06,0 -0.06,0.06 0,0.18 0,0.78 0.06,0.9 l 3.96,-3 c 0.06,0.06 0.18,0.42 0.18,0.6 l -4.14,3.12 v 0.24 0.9 0.12 l 1.2,0.42 3.78,-2.82 c 0.12,0.18 0.3,0.54 0.3,0.54 l -3.42,2.52 c 0.18,0.18 0.3,0.36 0.42,0.6 l 3.24,-2.34 c 0.12,0.12 0.24,0.48 0.24,0.48 l -3.36,2.58 v 0.9 l 3.6,-2.7 c 0.12,0.06 0.24,0.36 0.3,0.48 l -3.9,3 v 3.84 c 0,0.54 -0.48,1.2 -1.02,1.2 h -10.86 c -0.54,0 -0.96,-0.66 -0.96,-1.14 v -6.06 c -0.36,0.12 -0.7200001,0.36 -0.9000001,0.72 l -1.86,1.44 v -0.78 l 4.0800001,-3.06 v 0.54 z m -5.8800001,-27.54 -1.5,1.14 c 0.06,-0.48 0.42,-1.14 0.96,-1.14 z m -1.5,2.1 2.76,-2.1 h 1.02 l -3.78,2.82 z m 23.8200001,-2.1 -1.14,0.84 c 0,-0.42 0.66,-0.84 1.14,-0.84 z m -1.2,2.58 v -0.72 l 2.46,-1.86 h 0.96 z m 0,0.96 4.08,-3.12 v 0.72 l -4.08,3.12 z m -22.6200001,0.96 v -0.72 l 4.08,-3.12 v 0.78 z m 0,0.96 4.08,-3.12 v 0.78 l -4.08,3.06 z m 0,1.62 4.14,-3.06 c 0.06,0 0.3,0.48 0.3,0.54 l -4.26,3.12 c -0.06,0.06 -0.18,-0.48 -0.18,-0.54 z m 1.44,1.32 -0.66,-0.18 4.3200001,-3.24 c 0.36,0 0.72,0.12 0.72,0.12 l 0.06,0.06 -4.3200001,3.18 c -0.06,0.06 -0.12,0.06 -0.12,0.06 z m 23.3400001,0.18 4.32,-3.24 v 0.54 0.18 l -4.08,3.12 -0.06,-0.12 v -0.42 c 0,0 -0.12,0 -0.18,-0.06 z m -22.4400001,0.12 4.0800001,-3.06 v 0.72 l -4.0800001,3.12 z m 0,2.46 v -0.78 l 4.0800001,-3.06 v 0.72 z m 0,1.68 v -0.78 l 4.0800001,-3.06 v 0.72 z m 0,0.9 4.0800001,-3.06 v 0.66 l -4.0800001,3.06 z m 0,1.62 4.0800001,-3.06 v 0.72 l -4.0800001,3.06 z m 0,2.4 v -0.72 l 4.0800001,-3.06 v 0.72 z m 0,0.96 4.0800001,-3.06 v 0.72 l -4.0800001,3.06 z m 0,1.68 4.0800001,-3.06 v 0.72 l -4.0800001,3.06 z m 0,2.4 v -0.72 l 4.0800001,-3.12 v 0.78 z m 0,1.68 v -0.72 l 4.0800001,-3.12 v 0.78 z m 0,0.96 4.0800001,-3.12 v 0.78 l -4.0800001,3.06 z m 13.5000001,1.56 4.2,-3.18 c 0.06,0.06 0.18,0.42 0.24,0.6 l -4.2,3.12 c -0.12,-0.18 -0.24,-0.54 -0.24,-0.54 z m -13.5000001,0.84 v -0.72 l 4.0800001,-3.12 v 0.72 z m 0,1.68 v -0.78 l 4.0800001,-3.06 v 0.72 z m 15.6000001,2.58 4.2,-3.12 c 0,0 0.18,0.3 0.24,0.54 l -4.14,3.12 c -0.12,-0.18 -0.3,-0.54 -0.3,-0.54 z m 0.78,1.86 -0.24,-0.6 4.2,-3.12 c 0.12,0.24 0.24,0.54 0.24,0.54 z m -18.7200001,-0.12 4.08,-3.06 v 0.72 l -4.08,3.06 z m 19.2000001,1.38 -0.18,-0.54 4.2,-3.18 c 0.06,0.24 0.24,0.54 0.24,0.54 z m -19.2000001,1.02 v -0.72 l 4.02,-3 0.06,-0.06 v 0.66 z m 19.5600001,-0.3 4.14,-3.12 c 0.12,0.18 0.24,0.54 0.24,0.54 l -4.2,3.12 c 0,-0.06 -0.18,-0.42 -0.18,-0.54 z m 0.54,1.26 4.2,-3.12 c 0,0 0.12,0.36 0.12,0.6 l -4.14,3.12 c -0.06,-0.12 -0.18,-0.48 -0.18,-0.6 z m -20.1000001,-0.06 4.08,-3.06 v 0.72 l -4.08,3.12 z m 20.6400001,1.32 4.14,-3.06 c 0.12,0.18 0.24,0.54 0.24,0.54 l -4.2,3.12 c -0.06,-0.12 -0.18,-0.48 -0.18,-0.6 z m -20.6400001,1.08 v -0.72 l 4.02,-3 c 0.12,0.18 0.18,0.42 0.18,0.6 -0.06,0 -0.06,0.06 -0.06,0.06 l -4.08,3.06 z m 21.1200001,0.24 4.14,-3.12 h 0.06 l 0.36,0.36 -4.26,3.18 c -0.12,-0.06 -0.3,-0.24 -0.3,-0.42 z m -20.7600001,0.48 4.2000001,-3.18 c 0.12,0 0.24,0.12 0.3,0.12 0.18,0.06 0.3,0.06 0.48,0.06 l -4.4400001,3.3 c -0.24,0 -0.42,-0.12 -0.54,-0.3 z m 2.76,0.36 h -1.02 l 4.5000001,-3.36 h 0.96 z m 1.26,0 4.4400001,-3.36 h 0.96 l -4.44,3.36 z m 2.2200001,0 4.44,-3.36 h 0.96 l -4.44,3.36 z m 15.54,0 4.5,-3.36 h 0.96 l -4.44,3.36 z m 2.28,0 4.44,-3.36 h 0.96 l -4.44,3.36 z m 2.22,0 4.44,-3.36 h 1.02 l -4.5,3.36 z m 3.24,0 h -1.02 l 4.14,-3.12 h 0.06 v 0.72 z m -21.06,0 3.96,-3 v 0.72 l -3,2.28 z m 23.28,0 h -0.96 l 1.92,-1.44 c 0,0.24 0,0.66 -0.18,0.84 z m -20.22,0 h -0.84 l 1.74,-1.32 c 0,0.6 -0.36,1.32 -0.9,1.32 z"
       id="path1"
       style="fill:#14b89e;fill-opacity:1" />
  </g>
</svg>
